<?xml version="1.0" encoding="utf-8"?>
<svg viewBox="2.937 0.61 487.723 10.99" xmlns="http://www.w3.org/2000/svg">
    <path d="M 2.937 6.214 L 43.898 6.214 L 52.347 0.61 L 63.718 10.373 L 155.76 10.373 L 163.822 6.214 L 283.194 6.214" style="stroke: rgb(209, 176, 106); fill: none;" transform="matrix(1, 0, 0, 1, 7.105427357601002e-15, 2.842170943040401e-14)"/>
    <path d="M 407.998 6.214 L 490.66 6.214" style="stroke: rgb(209, 176, 106); fill: none;" transform="matrix(1, 0, 0, 1, 7.105427357601002e-15, 2.842170943040401e-14)"/>
    <path d="M 325.823 6.214 L 394.72 6.214" style="stroke: rgb(209, 176, 106); fill: none; stroke-width: 0.5px;" transform="matrix(1, 0, 0, 1, 7.105427357601002e-15, 2.842170943040401e-14)"/>
    <path d="M 233.446 0.692 L 238.85 6.096 L 233.446 11.5 L 228.042 6.096 L 233.446 0.692 Z" style="fill: none; stroke: rgb(209, 176, 106); transform-origin: 233.446px 6.096px;"/>
    <path d="M 287.744 1.21 L 292.744 6.21 L 287.744 11.21 L 282.744 6.21 L 287.744 1.21 Z" style="fill: none; stroke: rgb(209, 176, 106); stroke-width: 0.5px; transform-origin: 287.744px 6.21px;"/>
    <path d="M 321.263 1.032 L 326.3 6.211 L 321.263 11.318 L 239.924 11.189 L 234.848 6.211 L 239.943 0.908 L 321.263 1.032 Z" style="fill: none; stroke: rgb(209, 176, 106); stroke-width: 0.5px;" transform="matrix(1, 0, 0, 1, 7.105427357601002e-15, 2.842170943040401e-14)"/>
    <path d="M 61.402 8.287 L 230.125 8.287" style="stroke: rgb(209, 176, 106); fill: none; stroke-width: 0.5px;" transform="matrix(1, 0, 0, 1, 7.105427357601002e-15, 2.842170943040401e-14)"/>
    <path d="M 67.6 8.284 L 69.871 10.163" style="stroke: rgb(209, 176, 106); fill: none; stroke-width: 0.5px;" transform="matrix(1, 0, 0, 1, 7.105427357601002e-15, 2.842170943040401e-14)"/>
    <path d="M 290.618 8.287 L 303.324 8.287 L 310.48 1.1" style="stroke: rgb(209, 176, 106); fill: none; stroke-width: 0.5px;" transform="matrix(1, 0, 0, 1, 7.105427357601002e-15, 2.842170943040401e-14)"/>
    <path d="M 303.384 11.214 L 313.501 1.097 L 303.384 11.214 Z" style="fill: none; stroke: rgb(209, 176, 106); stroke-width: 0.5px; transform-origin: 303.384px 1.097px;"/>
    <path d="M 222.804 6.435 L 225.075 8.314" style="stroke: rgb(209, 176, 106); fill: none; stroke-width: 0.5px;" transform="matrix(1, 0, 0, 1, 7.105427357601002e-15, 2.842170943040401e-14)"/>
    <path d="M 402.533 0.792 L 407.937 6.196 L 402.533 11.6 L 397.129 6.196 L 402.533 0.792 Z" style="fill: none; stroke: rgb(209, 176, 106); transform-origin: 402.533px 6.196px;"/>
    <path d="M 397.018 3.687 L 399.541 6.21 L 397.018 8.733 L 394.495 6.21 L 397.018 3.687 Z" style="fill: none; stroke: rgb(209, 176, 106); stroke-width: 0.5px; transform-origin: 397.018px 6.21px;"/>
</svg>
